<?xml version="1.0" encoding="UTF-8"?>
<svg id="_레이어_1" data-name="레이어_1" xmlns="http://www.w3.org/2000/svg" version="1.1" viewBox="0 0 283.46 283.46">
  <!-- Generator: Adobe Illustrator 30.3.0, SVG Export Plug-In . SVG Version: 2.1.3 Build 182)  -->
  <defs>
    <style>
      .st0 {
        fill: #fff;
        stroke: #231815;
        stroke-miterlimit: 10;
      }
    </style>
  </defs>
  <polygon class="st0" points="65.68 62.1 56.99 62.1 52.65 69.63 56.99 77.15 65.68 77.15 70.03 69.63 65.68 62.1"/>
  <polygon class="st0" points="88.65 62.1 79.96 62.1 75.62 69.63 79.96 77.15 88.65 77.15 93 69.63 88.65 62.1"/>
  <polygon class="st0" points="111.62 62.1 102.93 62.1 98.59 69.63 102.93 77.15 111.62 77.15 115.97 69.63 111.62 62.1"/>
  <polygon class="st0" points="134.59 62.1 125.9 62.1 121.56 69.63 125.9 77.15 134.59 77.15 138.93 69.63 134.59 62.1"/>
  <polygon class="st0" points="157.56 62.1 148.87 62.1 144.53 69.63 148.87 77.15 157.56 77.15 161.9 69.63 157.56 62.1"/>
  <polygon class="st0" points="180.53 62.1 171.84 62.1 167.5 69.63 171.84 77.15 180.53 77.15 184.87 69.63 180.53 62.1"/>
  <polygon class="st0" points="203.5 62.1 194.81 62.1 190.47 69.63 194.81 77.15 203.5 77.15 207.84 69.63 203.5 62.1"/>
  <polygon class="st0" points="226.47 62.1 217.78 62.1 213.44 69.63 217.78 77.15 226.47 77.15 230.81 69.63 226.47 62.1"/>
  <polygon class="st0" points="65.68 83.12 56.99 83.12 52.65 90.64 56.99 98.17 65.68 98.17 70.03 90.64 65.68 83.12"/>
  <polygon class="st0" points="88.65 83.12 79.96 83.12 75.62 90.64 79.96 98.17 88.65 98.17 93 90.64 88.65 83.12"/>
  <polygon class="st0" points="111.62 83.12 102.93 83.12 98.59 90.64 102.93 98.17 111.62 98.17 115.97 90.64 111.62 83.12"/>
  <polygon class="st0" points="134.59 83.12 125.9 83.12 121.56 90.64 125.9 98.17 134.59 98.17 138.93 90.64 134.59 83.12"/>
  <polygon class="st0" points="157.56 83.12 148.87 83.12 144.53 90.64 148.87 98.17 157.56 98.17 161.9 90.64 157.56 83.12"/>
  <polygon class="st0" points="180.53 83.12 171.84 83.12 167.5 90.64 171.84 98.17 180.53 98.17 184.87 90.64 180.53 83.12"/>
  <polygon class="st0" points="203.5 83.12 194.81 83.12 190.47 90.64 194.81 98.17 203.5 98.17 207.84 90.64 203.5 83.12"/>
  <polygon class="st0" points="226.47 83.12 217.78 83.12 213.44 90.64 217.78 98.17 226.47 98.17 230.81 90.64 226.47 83.12"/>
  <polygon class="st0" points="65.68 104.13 56.99 104.13 52.65 111.66 56.99 119.18 65.68 119.18 70.03 111.66 65.68 104.13"/>
  <polygon class="st0" points="88.65 104.13 79.96 104.13 75.62 111.66 79.96 119.18 88.65 119.18 93 111.66 88.65 104.13"/>
  <polygon class="st0" points="111.62 104.13 102.93 104.13 98.59 111.66 102.93 119.18 111.62 119.18 115.97 111.66 111.62 104.13"/>
  <polygon class="st0" points="134.59 104.13 125.9 104.13 121.56 111.66 125.9 119.18 134.59 119.18 138.93 111.66 134.59 104.13"/>
  <polygon class="st0" points="157.56 104.13 148.87 104.13 144.53 111.66 148.87 119.18 157.56 119.18 161.9 111.66 157.56 104.13"/>
  <polygon class="st0" points="180.53 104.13 171.84 104.13 167.5 111.66 171.84 119.18 180.53 119.18 184.87 111.66 180.53 104.13"/>
  <polygon class="st0" points="203.5 104.13 194.81 104.13 190.47 111.66 194.81 119.18 203.5 119.18 207.84 111.66 203.5 104.13"/>
  <polygon class="st0" points="226.47 104.13 217.78 104.13 213.44 111.66 217.78 119.18 226.47 119.18 230.81 111.66 226.47 104.13"/>
  <polygon class="st0" points="65.68 125.15 56.99 125.15 52.65 132.67 56.99 140.19 65.68 140.19 70.03 132.67 65.68 125.15"/>
  <polygon class="st0" points="88.65 125.15 79.96 125.15 75.62 132.67 79.96 140.19 88.65 140.19 93 132.67 88.65 125.15"/>
  <polygon class="st0" points="111.62 125.15 102.93 125.15 98.59 132.67 102.93 140.19 111.62 140.19 115.97 132.67 111.62 125.15"/>
  <polygon class="st0" points="134.59 125.15 125.9 125.15 121.56 132.67 125.9 140.19 134.59 140.19 138.93 132.67 134.59 125.15"/>
  <polygon class="st0" points="157.56 125.15 148.87 125.15 144.53 132.67 148.87 140.19 157.56 140.19 161.9 132.67 157.56 125.15"/>
  <polygon class="st0" points="180.53 125.15 171.84 125.15 167.5 132.67 171.84 140.19 180.53 140.19 184.87 132.67 180.53 125.15"/>
  <polygon class="st0" points="203.5 125.15 194.81 125.15 190.47 132.67 194.81 140.19 203.5 140.19 207.84 132.67 203.5 125.15"/>
  <polygon class="st0" points="226.47 125.15 217.78 125.15 213.44 132.67 217.78 140.19 226.47 140.19 230.81 132.67 226.47 125.15"/>
  <polygon class="st0" points="65.68 146.16 56.99 146.16 52.65 153.69 56.99 161.21 65.68 161.21 70.03 153.69 65.68 146.16"/>
  <polygon class="st0" points="88.65 146.16 79.96 146.16 75.62 153.69 79.96 161.21 88.65 161.21 93 153.69 88.65 146.16"/>
  <polygon class="st0" points="111.62 146.16 102.93 146.16 98.59 153.69 102.93 161.21 111.62 161.21 115.97 153.69 111.62 146.16"/>
  <polygon class="st0" points="134.59 146.16 125.9 146.16 121.56 153.69 125.9 161.21 134.59 161.21 138.93 153.69 134.59 146.16"/>
  <polygon class="st0" points="157.56 146.16 148.87 146.16 144.53 153.69 148.87 161.21 157.56 161.21 161.9 153.69 157.56 146.16"/>
  <polygon class="st0" points="180.53 146.16 171.84 146.16 167.5 153.69 171.84 161.21 180.53 161.21 184.87 153.69 180.53 146.16"/>
  <polygon class="st0" points="203.5 146.16 194.81 146.16 190.47 153.69 194.81 161.21 203.5 161.21 207.84 153.69 203.5 146.16"/>
  <polygon class="st0" points="226.47 146.16 217.78 146.16 213.44 153.69 217.78 161.21 226.47 161.21 230.81 153.69 226.47 146.16"/>
  <polygon class="st0" points="65.68 167.18 56.99 167.18 52.65 174.7 56.99 182.22 65.68 182.22 70.03 174.7 65.68 167.18"/>
  <polygon class="st0" points="88.65 167.18 79.96 167.18 75.62 174.7 79.96 182.22 88.65 182.22 93 174.7 88.65 167.18"/>
  <polygon class="st0" points="111.62 167.18 102.93 167.18 98.59 174.7 102.93 182.22 111.62 182.22 115.97 174.7 111.62 167.18"/>
  <polygon class="st0" points="134.59 167.18 125.9 167.18 121.56 174.7 125.9 182.22 134.59 182.22 138.93 174.7 134.59 167.18"/>
  <polygon class="st0" points="157.56 167.18 148.87 167.18 144.53 174.7 148.87 182.22 157.56 182.22 161.9 174.7 157.56 167.18"/>
  <polygon class="st0" points="180.53 167.18 171.84 167.18 167.5 174.7 171.84 182.22 180.53 182.22 184.87 174.7 180.53 167.18"/>
  <polygon class="st0" points="203.5 167.18 194.81 167.18 190.47 174.7 194.81 182.22 203.5 182.22 207.84 174.7 203.5 167.18"/>
  <polygon class="st0" points="226.47 167.18 217.78 167.18 213.44 174.7 217.78 182.22 226.47 182.22 230.81 174.7 226.47 167.18"/>
  <polygon class="st0" points="65.68 188.19 56.99 188.19 52.65 195.72 56.99 203.24 65.68 203.24 70.03 195.72 65.68 188.19"/>
  <polygon class="st0" points="88.65 188.19 79.96 188.19 75.62 195.72 79.96 203.24 88.65 203.24 93 195.72 88.65 188.19"/>
  <polygon class="st0" points="111.62 188.19 102.93 188.19 98.59 195.72 102.93 203.24 111.62 203.24 115.97 195.72 111.62 188.19"/>
  <polygon class="st0" points="134.59 188.19 125.9 188.19 121.56 195.72 125.9 203.24 134.59 203.24 138.93 195.72 134.59 188.19"/>
  <polygon class="st0" points="157.56 188.19 148.87 188.19 144.53 195.72 148.87 203.24 157.56 203.24 161.9 195.72 157.56 188.19"/>
  <polygon class="st0" points="180.53 188.19 171.84 188.19 167.5 195.72 171.84 203.24 180.53 203.24 184.87 195.72 180.53 188.19"/>
  <polygon class="st0" points="203.5 188.19 194.81 188.19 190.47 195.72 194.81 203.24 203.5 203.24 207.84 195.72 203.5 188.19"/>
  <polygon class="st0" points="226.47 188.19 217.78 188.19 213.44 195.72 217.78 203.24 226.47 203.24 230.81 195.72 226.47 188.19"/>
</svg>